<svg width="70" height="80" viewBox="0 0 70 80" fill="none" xmlns="http://www.w3.org/2000/svg">
<path d="M20.1807 15.6644L19.1737 16.7832L19.3229 16.8951C19.3229 16.8951 20.1434 17.641 21.4861 18.2751L19.957 20.9977L21.2996 21.7436L22.9406 18.8345C23.1644 18.9091 23.4255 18.9837 23.6493 19.021L22.1574 22.1912L23.5374 22.8625L25.253 19.2448C25.8124 19.2821 26.4092 19.2075 27.0059 19.0956L25.7005 22.2285L27.1178 22.8252L28.9826 18.3497C29.6912 17.9767 30.3626 17.4919 30.9966 16.8578L31.1458 16.7459L30.1015 15.6271L29.9523 15.7389C25.3649 20.1399 20.5164 15.9627 20.3299 15.7762L20.1807 15.6644Z" fill="white"/>
<path d="M41.4022 18.387L43.267 22.8625L44.6842 22.2658L43.3789 19.1329C43.9383 19.2448 44.5351 19.3194 45.1318 19.2821L46.8474 22.8998L48.2274 22.2285L46.7355 19.0583C46.9966 19.021 47.2204 18.9464 47.4442 18.8718L49.0852 21.7809L50.4278 21.035L48.8987 18.3124C50.2414 17.6783 51.0619 16.9324 51.0619 16.9324L51.2111 16.8205L50.2041 15.6644L50.0549 15.7762C49.8684 15.9627 45.0199 20.1399 40.5071 15.8135L40.3579 15.7016L39.3136 16.8205L39.4628 16.9324C40.0222 17.4919 40.6936 18.014 41.4022 18.387Z" fill="white"/>
<path d="M18.6889 46.0606C19.7332 38.0047 18.95 30.5455 18.95 30.4709L18.9127 30.2844L17.3835 30.4709L17.4208 30.6574C17.4208 30.732 18.204 38.0047 17.1597 45.9115C16.2273 53.0723 13.542 62.1726 6.12011 65.0071L5.93363 65.0816L6.49307 66.4989L6.67955 66.4243C10.2973 65.0443 13.1691 62.2471 15.2576 58.1446C16.8987 54.8625 18.0549 50.8345 18.6889 46.0606Z" fill="white"/>
<path d="M23.3136 38.4895V38.3031L21.7845 38.3404V38.5268C22.232 54.7506 13.5047 65.0816 13.4301 65.1935L13.3183 65.3427L14.4744 66.3497L14.5863 66.2005C14.6982 66.0886 16.936 63.4406 19.1364 58.704C21.1877 54.3031 23.5374 47.2541 23.3136 38.4895Z" fill="white"/>
<path d="M53.5607 45.8742C52.5164 38.0047 53.2996 30.6947 53.2996 30.6201L53.3369 30.4336L51.8078 30.2471L51.7705 30.4336C51.7705 30.5082 50.95 37.9301 52.0316 46.0234C52.6656 50.7972 53.8218 54.8625 55.4628 58.07C57.5514 62.1726 60.4232 64.9698 64.0409 66.3497L64.2274 66.4243L64.7868 65.0071L64.6004 64.9325C57.1784 62.1353 54.4931 52.9977 53.5607 45.8742Z" fill="white"/>
<path d="M48.936 38.5268V38.3404L47.4069 38.3031V38.4895C47.1831 47.2914 49.5327 54.3404 51.584 58.704C53.7845 63.4406 56.0596 66.0886 56.1341 66.2005L56.246 66.3497L57.4022 65.3427L57.2903 65.1935C57.2157 65.0816 48.5257 54.7506 48.936 38.5268Z" fill="white"/>
<path d="M69.4488 61.2029C66.2041 60.7553 63.5188 59.1516 61.4675 56.3544C60.274 54.7133 59.267 52.6621 58.4838 50.2378C59.4535 49.6784 60.3486 49.0443 61.0945 48.373C61.1691 48.4476 61.2437 48.5222 61.3556 48.5968C61.9523 49.0816 63.2204 49.8648 64.5631 49.8648C65.0479 49.8648 65.4955 49.753 65.9057 49.5665C66.8008 49.1562 67.7705 48.1865 67.8078 47.0676C67.8078 46.0233 67.1365 45.091 65.9057 44.4569C67.0619 44.084 68.33 43.3753 68.8894 41.9581C69.2624 40.9138 69.2997 39.3847 68.4046 38.4895C67.5094 37.5571 65.9803 37.408 64.302 38.1166C65.7192 35.8415 65.9803 33.6411 64.936 32.4476C64.0409 31.4033 62.3626 31.2914 61.1691 31.6271C59.4535 32.1119 58.1854 33.7529 57.7006 36.2891C57.5887 36.8112 57.5514 37.408 57.5514 37.9674C57.1784 38.0793 56.8055 38.2658 56.4698 38.4895C55.6866 26.5175 57.7752 14.359 57.7752 14.2471L57.8871 13.5012L57.1784 13.352C52.964 12.4942 48.9733 10.9277 45.281 8.68998C43.8264 7.79488 42.4092 6.78789 41.0292 5.7063C40.8428 5.55711 40.6563 5.37063 40.4698 5.22145L40.3579 5.14686C38.7542 3.8042 37.2623 2.31236 35.9197 0.708625L35.3229 0L34.7262 0.671329C33.3089 2.27506 31.7425 3.8042 30.1015 5.18415C29.7658 5.44523 29.4675 5.669 29.2437 5.89278C28.0129 6.86248 26.7075 7.75758 25.3649 8.5408C21.598 10.8159 17.4954 12.4196 13.1691 13.3147L12.4604 13.4639L12.5723 14.2098C12.5723 14.2844 14.1015 22.9744 14.0642 32.9697C13.8031 32.8205 13.542 32.7087 13.281 32.6341C13.3182 31.9627 13.281 31.2914 13.1318 30.6574C12.5723 27.8602 11.1924 26.0327 9.25298 25.4732C7.94762 25.1003 6.08281 25.2121 5.11311 26.3683C3.91964 27.7483 4.2926 30.2844 6.00822 32.8951C4.10612 32.1119 2.16672 32.2238 1.15973 33.2308C0.190032 34.2378 0.227328 35.9161 0.637585 37.035C1.27162 38.676 2.80076 39.4965 4.18071 39.9068C2.68887 40.6154 1.83106 41.7343 1.83106 42.8905C1.83106 44.1213 2.91265 45.1655 3.91964 45.6504C4.36719 45.8742 4.85204 45.9488 5.37419 45.9488C6.90333 45.9488 8.24598 45.0537 8.95461 44.5315C9.0665 44.4569 9.17839 44.345 9.32757 44.2331C10.3346 45.1282 11.528 45.9488 12.7961 46.6574C11.9383 50.6854 10.5956 53.9674 8.84272 56.3171C6.79144 59.1143 4.10612 60.7553 0.861362 61.1656L0.674881 61.2029L0.861362 62.732L1.04784 62.6947C4.70286 62.2099 7.72384 60.3823 10.0362 57.2122C13.542 52.4383 15.3695 44.7553 15.556 34.3124V34.1632C15.556 32.8951 15.556 31.7763 15.556 30.6947C15.4068 23.2355 14.4744 16.7086 14.1761 14.6201C14.9966 14.4336 15.8171 14.2098 16.6749 13.9487C16.7122 15.8135 17.0479 21.2961 18.9127 27.1142C20.4791 31.9627 22.7542 35.7669 25.6633 38.5268C26.4838 46.9185 23.2017 51.5432 23.1644 51.6178L23.0525 51.7669L24.2833 52.6621L24.3952 52.5129C24.5444 52.3264 27.6772 47.9627 27.3043 39.9068C29.6539 41.6224 32.3392 42.7413 35.2856 43.1516H35.5094C38.4185 42.7413 41.0665 41.6597 43.3789 39.9814C43.0432 48 46.1388 52.3264 46.288 52.5129L46.3999 52.6621L47.6306 51.7669L47.5187 51.6178C47.4815 51.5805 44.2367 46.993 45.0199 38.676C48.0036 35.9534 50.316 32.0746 51.9197 27.1515C53.7472 21.4452 54.0829 16.0373 54.1575 14.1352C54.8661 14.3217 55.5374 14.5082 56.1341 14.6574C55.7985 16.7459 54.8661 23.2727 54.7542 30.732C54.5304 43.0024 56.3579 51.9161 60.274 57.2495C62.5864 60.3823 65.6073 62.2471 69.2624 62.732L69.4488 62.7693L69.6353 61.2401L69.4488 61.2029ZM59.1551 36.5129C59.3789 35.394 59.9756 33.4919 61.5421 33.0443C62.288 32.8205 63.295 32.8951 63.7052 33.38C64.0409 33.7529 64.0409 34.6108 63.7425 35.5432C63.4069 36.5874 62.7355 37.7063 61.8032 38.7879C61.4302 38.4523 60.5724 37.8182 59.3416 37.669C59.2297 37.669 59.1551 37.669 59.0432 37.6317C59.0432 37.2961 59.0805 36.8858 59.1551 36.5129ZM62.1388 42.2565C62.1388 42.331 62.1761 42.4429 62.2134 42.5921C62.2134 42.6294 62.3626 43.6364 62.0269 44.7553C61.8032 45.5012 60.5351 47.2541 58.0735 48.7087C57.4022 46.2471 56.9174 43.4126 56.619 40.2798C57.0293 39.8695 57.999 39.0863 59.1924 39.1982C60.0875 39.3101 60.6843 39.8322 60.8707 39.9814C61.2064 40.3543 61.8777 41.1003 62.1388 42.2565ZM63.7425 43.2634C63.7425 42.7413 63.7052 42.4056 63.7052 42.3683C63.668 42.1819 63.6307 42.0327 63.6307 41.9208C63.5188 41.4359 63.3323 40.9511 63.1085 40.4662C64.936 38.9371 66.7262 38.9371 67.2857 39.4965C67.6586 39.8695 67.6586 40.7646 67.4349 41.3613C66.9127 42.7413 65.0479 43.1143 64.2274 43.2261C64.0782 43.2634 63.929 43.2634 63.7425 43.2634ZM63.4442 45.2028C65.2717 45.4639 66.2414 46.4336 66.2414 47.0303C66.2414 47.4406 65.7192 47.9255 65.2344 48.1492C64.1528 48.6341 62.8101 47.739 62.2507 47.3287C62.2134 47.2914 62.1761 47.2541 62.1388 47.2541C62.8101 46.5455 63.2577 45.8369 63.4442 45.2028ZM39.4255 6.97437H39.3509C38.6796 6.82518 38.0083 6.6387 37.4115 6.34033L36.7775 6.07926L36.4418 6.676C36.1807 7.12355 35.7332 7.72029 35.1738 7.86947C34.577 7.72029 34.1668 7.12355 33.9057 6.676L33.57 6.07926L32.8987 6.34033C32.2647 6.6014 31.6306 6.82518 30.922 6.97437C30.6236 7.04896 30.3626 7.08625 30.1015 7.12355C30.1388 7.08625 30.2134 7.01166 30.288 6.97437C32.0782 5.55712 33.7565 3.99068 35.2856 2.34965C36.7029 3.95338 38.2693 5.44523 39.9476 6.82518C40.0595 6.93707 40.2087 7.04896 40.3206 7.16085C39.9849 7.08625 39.612 7.01166 39.4255 6.97437ZM31.295 8.46621C31.8544 8.35432 32.4138 8.20514 32.936 7.98136C33.4954 8.72728 34.1668 9.21213 34.9127 9.36131C34.9127 9.36131 34.9127 9.36131 34.95 9.36131V9.39861H35.3975V9.36131C35.3975 9.36131 35.3975 9.36131 35.4348 9.36131C36.1807 9.21213 36.8521 8.72728 37.4115 7.98136C37.9337 8.16784 38.4931 8.35432 39.0525 8.46621H39.1271C40.5071 8.76458 41.5141 8.91376 42.0735 8.39162C42.8567 8.95106 43.6773 9.4732 44.4978 9.99535C44.908 10.2564 45.3556 10.4802 45.8404 10.7786C44.8707 10.8159 43.6027 10.8532 42.3346 11.0396C38.1947 11.5245 36.0689 12.718 35.957 14.5455V27.8602C35.5467 28.1585 35.0992 28.0093 34.8008 27.8229V14.5082C34.6889 12.6807 32.563 11.4872 28.4232 11.0023C27.0432 10.8532 25.6633 10.7786 24.5817 10.7413C25.1411 10.4429 25.6632 10.1445 26.1854 9.84616C26.8567 9.39861 27.6026 8.95106 28.3486 8.42891C28.908 8.91376 29.9523 8.72728 31.295 8.46621ZM33.2344 14.5455V28.4942L33.4954 28.718C33.5327 28.7553 34.0176 29.1655 34.6889 29.3893C35.6586 29.6877 36.591 29.4266 37.2996 28.6807L37.4861 28.4569V14.5828C37.598 12.979 43.0059 12.1212 47.9663 12.2704H48.1528V11.9347C49.6073 12.6061 51.0992 13.2028 52.6283 13.725C52.591 15.1422 52.3672 20.8485 50.4278 26.7413C49.1598 30.6574 47.4069 33.8648 45.2437 36.2891C42.5957 39.2728 39.2763 41.063 35.3975 41.6597C31.5187 41.063 28.1994 39.2728 25.5514 36.2891C23.3882 33.8648 21.6353 30.6574 20.3672 26.7413C18.3532 20.5501 18.204 14.4709 18.1667 13.5385C19.6586 13.0163 21.1131 12.4569 22.5304 11.7856V12.3077H22.7169C27.7145 12.1212 33.1225 12.9417 33.2344 14.5455ZM11.3416 32.4103C9.88701 32.5595 8.91731 33.3427 8.54435 33.7156C6.12011 30.993 5.48607 28.3077 6.30659 27.3753C6.79144 26.8159 8.02221 26.7413 8.88002 26.9651C10.7075 27.4872 11.4162 29.6877 11.6772 30.993C11.7518 31.4406 11.8264 31.9254 11.7891 32.4103C11.6026 32.4103 11.4534 32.4103 11.3416 32.4103ZM7.98491 37.8555C8.02221 37.7063 8.02221 37.5571 8.0595 37.4826C8.35787 36.1399 9.14109 35.2448 9.55135 34.8345C9.81242 34.6108 10.4837 34.014 11.4907 33.9394C12.5723 33.8275 13.4674 34.3124 14.0642 34.7599C13.9896 38.5641 13.6539 42.0327 13.1318 45.0537C10.0735 43.338 8.50706 41.2495 8.24598 40.3171C7.79843 39.049 7.98491 37.8928 7.98491 37.8555ZM6.71685 40.7273V40.7646C6.94062 41.4732 7.46277 42.2937 8.20869 43.1516C8.1341 43.2261 8.0595 43.2634 7.98491 43.338C7.38817 43.8229 5.82174 44.8672 4.51638 44.2704C3.95694 44.0094 3.3229 43.4126 3.3229 42.8905C3.39749 42.1819 4.55367 41.0257 6.71685 40.7273ZM6.56766 37.1469C6.53037 37.2588 6.49307 37.408 6.45577 37.6317C6.45577 37.669 6.38118 38.0793 6.41848 38.7506C6.1947 38.7506 5.97092 38.7506 5.78444 38.7133C4.88934 38.6014 2.68887 38.1539 2.09213 36.5502C1.83106 35.8415 1.83106 34.7972 2.27861 34.3124C2.94994 33.6411 5.07582 33.6411 7.20169 35.4686C6.90333 35.9907 6.67955 36.5501 6.56766 37.1469Z" fill="white"/>
<path d="M10.7448 42.3683L10.894 42.4802L11.8264 41.5105L11.6772 41.3986C11.6399 41.3613 9.43946 39.1982 10.4092 37.1842L10.4837 36.9977L9.29027 36.4383L9.21568 36.6247C7.83573 39.4965 10.5956 42.2564 10.7448 42.3683Z" fill="white"/>
<path d="M4.66556 43.5245C4.95393 43.5245 5.18771 43.2907 5.18771 43.0024C5.18771 42.714 4.95393 42.4802 4.66556 42.4802C4.37719 42.4802 4.14342 42.714 4.14342 43.0024C4.14342 43.2907 4.37719 43.5245 4.66556 43.5245Z" fill="white"/>
<path d="M5.74715 42.2937C5.89633 42.2937 6.04552 42.2192 6.12011 42.1073C6.232 41.9954 6.26929 41.8835 6.26929 41.7343C6.26929 41.5851 6.1947 41.4732 6.08281 41.3613C5.85904 41.1749 5.52337 41.1749 5.33689 41.3986C5.15041 41.6224 5.15041 41.9581 5.37419 42.1446C5.48607 42.2565 5.63526 42.2937 5.74715 42.2937Z" fill="white"/>
<path d="M6.232 42.7786C6.04552 43.0024 6.04552 43.338 6.26929 43.5245C6.38118 43.6364 6.49307 43.6737 6.64225 43.6737C6.79144 43.6737 6.94062 43.5991 7.05251 43.4872C7.23899 43.2634 7.23899 42.9278 7.01521 42.7413C6.79144 42.5548 6.45577 42.5548 6.232 42.7786Z" fill="white"/>
<path d="M3.3229 34.8345C3.21101 34.7599 3.09913 34.6853 2.94994 34.6853C2.80076 34.6853 2.68887 34.7599 2.61428 34.8345C2.4278 35.021 2.4278 35.3567 2.65157 35.5432C2.76346 35.6177 2.87535 35.6923 2.98724 35.6923C3.13642 35.6923 3.24831 35.655 3.3602 35.5432C3.54668 35.3567 3.50938 35.021 3.3229 34.8345Z" fill="white"/>
<path d="M3.3975 36.662C3.21101 36.8485 3.21101 37.1842 3.43479 37.3707C3.54668 37.4453 3.65857 37.5198 3.77046 37.5198C3.91964 37.5198 4.03153 37.4826 4.14342 37.3707C4.3299 37.1842 4.3299 36.8485 4.10612 36.662C3.91964 36.4383 3.58398 36.4756 3.3975 36.662Z" fill="white"/>
<path d="M5.15041 36.1026C5.225 36.1399 5.33689 36.1772 5.41148 36.1772C5.44878 36.1772 5.48607 36.1772 5.52337 36.1772C5.67256 36.1399 5.74715 36.0653 5.82174 35.9534C5.89633 35.8415 5.89633 35.6923 5.89633 35.5805C5.89633 35.4686 5.78444 35.3567 5.67256 35.2821C5.56067 35.2075 5.41148 35.2075 5.29959 35.2075C5.15041 35.2448 5.07582 35.3194 5.00123 35.4313C4.92663 35.5432 4.92663 35.6923 4.92663 35.8042C4.96393 35.9161 5.03852 36.028 5.15041 36.1026Z" fill="white"/>
<path d="M8.50706 30.8066C8.46976 30.6574 8.39517 30.5828 8.28328 30.5082C8.17139 30.4336 8.02221 30.4336 7.91032 30.4336C7.76114 30.4709 7.68654 30.5455 7.61195 30.6574C7.53736 30.7693 7.53736 30.9184 7.53736 31.0303C7.53736 31.1422 7.64925 31.2541 7.76114 31.3287C7.83573 31.366 7.94762 31.4033 8.02221 31.4033C8.0595 31.4033 8.0968 31.4033 8.1341 31.4033C8.28328 31.366 8.35787 31.2914 8.43246 31.1795C8.50706 31.0676 8.54435 30.9184 8.50706 30.8066Z" fill="white"/>
<path d="M9.21568 29.0909C9.48346 29.0909 9.70053 28.8739 9.70053 28.6061C9.70053 28.3383 9.48346 28.1212 9.21568 28.1212C8.94791 28.1212 8.73083 28.3383 8.73083 28.6061C8.73083 28.8739 8.94791 29.0909 9.21568 29.0909Z" fill="white"/>
<path d="M7.42547 27.7856C7.20169 27.5991 6.90333 27.6364 6.71685 27.8602C6.64225 27.9721 6.60496 28.0839 6.60496 28.2331C6.60496 28.3823 6.67955 28.4942 6.79144 28.5688C6.86603 28.6434 6.97792 28.6807 7.08981 28.6807C7.1271 28.6807 7.1271 28.6807 7.1644 28.6807C7.31358 28.6807 7.42547 28.6061 7.50006 28.4942C7.57466 28.3823 7.61195 28.2704 7.61195 28.1212C7.61195 28.0093 7.53736 27.8602 7.42547 27.7856Z" fill="white"/>
<path d="M58.4838 45.5758L58.3346 45.6877L59.4162 46.7693L59.5654 46.6574C59.6773 46.5455 62.2134 44.0467 60.9826 41.3986L60.908 41.2122L59.5281 41.8835L59.6027 42.07C60.3859 43.711 58.5211 45.5758 58.4838 45.5758Z" fill="white"/>
<path d="M63.929 46.5828C64.0409 46.6947 64.1528 46.732 64.302 46.732C64.4139 46.732 64.5258 46.6947 64.6376 46.5828C64.8241 46.3963 64.8614 46.0979 64.6749 45.8742C64.4885 45.6877 64.1901 45.6504 63.9663 45.8369C63.8544 45.9115 63.8171 46.0606 63.8171 46.1725C63.7798 46.359 63.8544 46.5082 63.929 46.5828Z" fill="white"/>
<path d="M67.0246 39.8695C66.95 39.7949 66.8381 39.7203 66.6889 39.7203C66.577 39.7203 66.4279 39.7576 66.3533 39.8322C66.2787 39.9068 66.2041 40.0187 66.2041 40.1679C66.2041 40.2798 66.2414 40.4289 66.316 40.5035C66.3906 40.6154 66.5397 40.6527 66.6516 40.6527C66.7635 40.6527 66.8754 40.6154 66.95 40.5408C67.0246 40.4662 67.0992 40.3544 67.0992 40.2052C67.1365 40.056 67.0992 39.9441 67.0246 39.8695Z" fill="white"/>
<path d="M66.2787 41.3613C66.0549 41.2495 65.7565 41.3613 65.6446 41.5851C65.5328 41.8089 65.6446 42.1073 65.8684 42.2192C65.943 42.2564 66.0176 42.2565 66.0549 42.2565C66.0922 42.2565 66.1668 42.2564 66.2041 42.2192C66.316 42.1819 66.4279 42.1073 66.4652 41.9954C66.5025 41.8835 66.5397 41.7716 66.4652 41.6224C66.4652 41.5105 66.3906 41.3986 66.2787 41.3613Z" fill="white"/>
<path d="M64.9733 39.8695C64.7495 39.7576 64.4512 39.8322 64.3393 40.056C64.2274 40.2798 64.302 40.5781 64.5258 40.69C64.6004 40.7273 64.6749 40.7646 64.7495 40.7646C64.8987 40.7646 65.0852 40.69 65.1598 40.5408C65.2717 40.2798 65.1971 40.0187 64.9733 39.8695Z" fill="white"/>
<path d="M62.3253 36.6247C62.3626 36.6247 62.3999 36.6247 62.4372 36.6247C62.661 36.6247 62.8474 36.4756 62.8847 36.2518C62.922 36.1399 62.8847 35.9907 62.8101 35.9161C62.7355 35.8042 62.6237 35.7296 62.5118 35.6923C62.2507 35.6177 62.0269 35.8042 61.9523 36.028C61.915 36.3264 62.0642 36.5874 62.3253 36.6247Z" fill="white"/>
<path d="M60.908 35.1702C61.1691 35.1702 61.3556 34.9464 61.3556 34.6853C61.3556 34.4243 61.1318 34.2005 60.908 34.2005C60.6843 34.2005 60.4232 34.4616 60.4232 34.6853C60.4232 34.9091 60.647 35.1702 60.908 35.1702Z" fill="white"/>
<path d="M62.6983 34.4243C62.8101 34.4243 62.8847 34.387 62.9966 34.3124C63.1085 34.2378 63.1458 34.1259 63.1831 34.014C63.2204 33.9021 63.1458 33.7529 63.0712 33.6784C62.9966 33.5665 62.8847 33.5292 62.7729 33.4919C62.661 33.4919 62.5118 33.5292 62.4372 33.6038C62.3253 33.6784 62.288 33.7902 62.2507 33.9021C62.2134 34.014 62.288 34.1632 62.3626 34.2378C62.4372 34.387 62.5491 34.4243 62.6983 34.4243Z" fill="white"/>
<path d="M64.3393 47.2168C64.2274 47.2168 64.1155 47.2541 64.0036 47.3287C63.929 47.4033 63.8544 47.5152 63.8544 47.6271C63.8544 47.739 63.8917 47.8509 63.9663 47.9627C64.0409 48.0746 64.1528 48.1119 64.2647 48.1119H64.302C64.4139 48.1119 64.5258 48.0746 64.6004 48C64.6749 47.9254 64.7495 47.8136 64.7495 47.7017C64.7495 47.5898 64.7122 47.4779 64.6376 47.366C64.5631 47.2541 64.4512 47.2168 64.3393 47.2168Z" fill="white"/>
<path d="M65.4582 47.4779C65.7192 47.4779 65.9057 47.2541 65.9057 47.0303C65.9057 46.7693 65.6819 46.5828 65.4582 46.5828C65.1971 46.5828 65.0106 46.8066 65.0106 47.0303C65.0106 47.2541 65.1971 47.4779 65.4582 47.4779Z" fill="white"/>
<path d="M30.549 33.7529L30.2134 35.2448L30.3999 35.2821C32.0409 35.655 33.7565 35.8788 35.4721 35.8788C37.1504 35.8788 38.8288 35.6923 40.4698 35.2821L40.6563 35.2448L40.3206 33.7529L40.1341 33.7902C38.605 34.1632 37.0386 34.3497 35.4721 34.3497C33.8684 34.3497 32.2647 34.1632 30.7728 33.7902L30.549 33.7529Z" fill="white"/>
<path d="M42.7704 78.1725V79.9627L42.2109 80C40.5326 80 39.4883 79.9627 38.0711 77.986L33.5583 71.0862L29.9032 71.1608V79.7762H27.5909V57.5478H35.9452C40.4953 57.5478 42.3601 60.9044 42.3601 64.3356C42.3601 67.6923 40.6818 71.0117 36.2436 71.0489H36.0198L39.7121 76.6434C40.831 78.2844 41.3904 78.1725 42.4347 78.1725H42.7704ZM29.9405 69.035H35.8333C38.9662 69.035 40.1224 66.6853 40.1224 64.2984C40.1224 61.986 38.9662 59.6363 35.9452 59.6363H29.9405V69.035Z" fill="white"/>
</svg>
