<svg width="184" height="72" viewBox="0 0 184 72" fill="none" xmlns="http://www.w3.org/2000/svg">
<path d="M21.4552 16.9602L20.365 18.1716L20.5265 18.2928C20.5265 18.2928 21.4149 19.1004 22.8686 19.7869L21.213 22.7347L22.6667 23.5423L24.4435 20.3926C24.6858 20.4734 24.9684 20.5541 25.2107 20.5945L23.5955 24.0269L25.0896 24.7538L26.9471 20.8368C27.5528 20.8772 28.1989 20.7964 28.845 20.6753L27.4317 24.0673L28.9662 24.7134L30.9853 19.8676C31.7525 19.4638 32.4794 18.9389 33.1659 18.2524L33.3274 18.1312L32.1967 16.9198L32.0352 17.0409C27.0683 21.8059 21.8187 17.2832 21.6168 17.0813L21.4552 16.9602Z" fill="#AC3964"/>
<path d="M44.4323 19.908L46.4513 24.7538L47.9858 24.1077L46.5725 20.7156C47.1782 20.8368 47.8243 20.9176 48.4704 20.8772L50.3279 24.7942L51.8221 24.0673L50.2068 20.6349C50.4895 20.5945 50.7318 20.5137 50.974 20.433L52.7508 23.5827L54.2046 22.7751L52.5489 19.8273C54.0026 19.1408 54.891 18.3331 54.891 18.3331L55.0526 18.212L53.9623 16.9602L53.8007 17.0813C53.5988 17.2832 48.3492 21.8059 43.4631 17.1217L43.3016 17.0006L42.1709 18.212L42.3324 18.3331C42.9381 18.9389 43.665 19.5042 44.4323 19.908Z" fill="#AC3964"/>
<path d="M19.84 49.871C20.9707 41.1486 20.1227 33.0723 20.1227 32.9916L20.0823 32.7897L18.4266 32.9916L18.467 33.1935C18.467 33.2743 19.315 41.1486 18.1844 49.7095C17.1748 57.4627 14.2674 67.3158 6.23147 70.3847L6.02957 70.4655L6.63529 72L6.83719 71.9192C10.7542 70.4251 13.8636 67.3965 16.1249 62.9546C17.9017 59.401 19.1535 55.0398 19.84 49.871Z" fill="#AC3964"/>
<path d="M24.8473 41.6736V41.4717L23.1917 41.5121V41.714C23.6762 59.2799 14.227 70.4655 14.1462 70.5866L14.0251 70.7482L15.2769 71.8385L15.398 71.6769C15.5192 71.5558 17.9421 68.6887 20.3246 63.5603C22.5455 58.7953 25.0896 51.1632 24.8473 41.6736Z" fill="#AC3964"/>
<path d="M57.5966 49.6691C56.4659 41.1486 57.3139 33.2339 57.3139 33.1531L57.3543 32.9512L55.6987 32.7493L55.6583 32.9512C55.6583 33.032 54.7699 41.0679 55.941 49.8306C56.6274 54.9994 57.8793 59.401 59.656 62.8738C61.9174 67.3158 65.0268 70.3444 68.9438 71.8385L69.1457 71.9192L69.7514 70.3847L69.5495 70.304C61.5136 67.2754 58.6061 57.3819 57.5966 49.6691Z" fill="#AC3964"/>
<path d="M52.5893 41.714V41.5121L50.9337 41.4717V41.6736C50.6914 51.2036 53.2354 58.8357 55.4564 63.5603C57.8389 68.6887 60.3021 71.5558 60.3829 71.6769L60.504 71.8385L61.7559 70.7482L61.6347 70.5866C61.554 70.4655 52.1451 59.2799 52.5893 41.714Z" fill="#AC3964"/>
<path d="M74.799 66.2658C71.2859 65.7813 68.3784 64.0449 66.1574 61.0163C64.8652 59.2395 63.7749 57.0185 62.9269 54.3937C63.9768 53.788 64.946 53.1015 65.7536 52.3746C65.8344 52.4554 65.9152 52.5362 66.0363 52.6169C66.6824 53.1419 68.0554 53.9899 69.5091 53.9899C70.0341 53.9899 70.5186 53.8688 70.9628 53.6668C71.932 53.2227 72.9819 52.1727 73.0223 50.9613C73.0223 49.8306 72.2954 48.8211 70.9628 48.1346C72.2146 47.7308 73.5876 46.9635 74.1933 45.4291C74.5971 44.2984 74.6375 42.6427 73.6684 41.6736C72.6992 40.664 71.0436 40.5025 69.2264 41.2698C70.7609 38.8065 71.0436 36.424 69.9129 35.1318C68.9438 34.0011 67.1266 33.88 65.8344 34.2434C63.9768 34.7684 62.6039 36.5451 62.0789 39.2911C61.9578 39.8564 61.9174 40.5025 61.9174 41.1082C61.5136 41.2294 61.1098 41.4313 60.7463 41.6736C59.8983 28.7112 62.1597 15.5468 62.1597 15.4257L62.2808 14.6181L61.5136 14.4565C56.9505 13.5278 52.6297 11.8317 48.6319 9.40886C47.057 8.43971 45.5226 7.34941 44.0284 6.17835C43.8265 6.01683 43.6246 5.81492 43.4227 5.65339L43.3016 5.57263C41.5652 4.1189 39.9499 2.50365 38.4962 0.767246L37.8501 0L37.204 0.726865C35.6695 2.46326 33.9735 4.1189 32.1967 5.61301C31.8333 5.89568 31.5102 6.13797 31.2679 6.38026C29.9353 7.43017 28.522 8.39933 27.0683 9.24734C22.9897 11.7106 18.5478 13.447 13.8636 14.4162L13.0963 14.5777L13.2175 15.3853C13.2175 15.4661 14.8731 24.8749 14.8327 35.6971C14.55 35.5356 14.2674 35.4145 13.9847 35.3337C14.0251 34.6068 13.9847 33.88 13.8232 33.1935C13.2175 30.1649 11.7233 28.1862 9.62351 27.5805C8.21016 27.1767 6.19109 27.2978 5.14117 28.5496C3.84897 30.0437 4.25279 32.7897 6.11033 35.6164C4.05088 34.7684 1.95105 34.8895 0.860749 35.9798C-0.189167 37.0701 -0.148786 38.8873 0.29541 40.0987C0.981893 41.8755 2.63753 42.7639 4.13164 43.2081C2.51639 43.9753 1.58761 45.1868 1.58761 46.4386C1.58761 47.7712 2.75867 48.9018 3.84897 49.4268C4.33355 49.6691 4.85851 49.7499 5.42384 49.7499C7.07948 49.7499 8.53321 48.7807 9.30046 48.2154C9.4216 48.1346 9.54275 48.0135 9.70427 47.8923C10.7946 48.8615 12.0868 49.7499 13.4597 50.5171C12.531 54.8783 11.0772 58.4319 9.17931 60.9759C6.95834 64.0045 4.05088 65.7813 0.537698 66.2255L0.335791 66.2658L0.537698 67.9215L0.739605 67.8811C4.69698 67.3561 7.96787 65.3774 10.4715 61.945C14.2674 56.7762 16.2461 48.4577 16.448 37.1509V36.9893C16.448 35.6164 16.448 34.4049 16.448 33.2339C16.2864 25.1576 15.2769 18.0909 14.9538 15.8295C15.8422 15.6276 16.7306 15.3853 17.6594 15.1026C17.6998 17.1217 18.0632 23.0578 20.0823 29.3573C21.7783 34.6068 24.2416 38.7257 27.3913 41.714C28.2797 50.7998 24.7261 55.8071 24.6858 55.8878L24.5646 56.0494L25.8972 57.0185L26.0183 56.857C26.1799 56.6551 29.5719 51.9305 29.1681 43.2081C31.7121 45.0656 34.6196 46.2771 37.8097 46.7213H38.052C41.2017 46.2771 44.0688 45.106 46.5725 43.2888C46.209 51.9708 49.5607 56.6551 49.7222 56.857L49.8434 57.0185L51.1759 56.0494L51.0548 55.8878C51.0144 55.8474 47.5012 50.8805 48.3492 41.8755C51.5798 38.9276 54.0834 34.728 55.8198 29.3976C57.7985 23.2193 58.1619 17.364 58.2427 15.3045C59.0099 15.5064 59.7368 15.7084 60.3829 15.8699C60.0195 18.1312 59.0099 25.198 58.8888 33.2743C58.6465 46.5597 60.6252 56.2109 64.8652 61.9854C67.3689 65.3774 70.6398 67.3965 74.5971 67.9215L74.799 67.9619L75.001 66.3062L74.799 66.2658ZM63.6538 39.5334C63.8961 38.3219 64.5422 36.2625 66.2382 35.7779C67.0458 35.5356 68.1361 35.6164 68.5803 36.1413C68.9438 36.5451 68.9437 37.4739 68.6207 38.4835C68.2573 39.6141 67.5304 40.8256 66.5209 41.9966C66.1171 41.6332 65.1883 40.9467 63.8557 40.7852C63.7346 40.7852 63.6538 40.7852 63.5326 40.7448C63.5326 40.3814 63.573 39.9372 63.6538 39.5334ZM66.8843 45.7521C66.8843 45.8329 66.9247 45.954 66.9651 46.1155C66.9651 46.1559 67.1266 47.2462 66.7632 48.4577C66.5209 49.2653 65.1479 51.1632 62.4827 52.7381C61.7559 50.0729 61.2309 47.0039 60.9079 43.6119C61.3521 43.1677 62.402 42.3197 63.6942 42.4408C64.6633 42.562 65.3094 43.1273 65.5113 43.2888C65.8748 43.6926 66.6016 44.5003 66.8843 45.7521ZM68.6207 46.8424C68.6207 46.2771 68.5803 45.9136 68.5803 45.8732C68.5399 45.6713 68.4996 45.5098 68.4996 45.3887C68.3784 44.8637 68.1765 44.3388 67.9342 43.8138C69.9129 42.1582 71.8512 42.1582 72.4569 42.7639C72.8607 43.1677 72.8607 44.1368 72.6185 44.7829C72.0531 46.2771 70.034 46.6809 69.1457 46.802C68.9841 46.8424 68.8226 46.8424 68.6207 46.8424ZM68.2977 48.9422C70.2763 49.2249 71.3263 50.2748 71.3263 50.9209C71.3263 51.3651 70.7609 51.8901 70.236 52.1324C69.0649 52.6573 67.6112 51.6882 67.0054 51.244C66.9651 51.2036 66.9247 51.1632 66.8843 51.1632C67.6112 50.396 68.0957 49.6287 68.2977 48.9422ZM42.292 7.55132H42.2113C41.4844 7.38979 40.7575 7.18789 40.1115 6.86483L39.425 6.58216L39.0615 7.22827C38.7789 7.71284 38.2943 8.35895 37.6886 8.52047C37.0425 8.35895 36.5983 7.71284 36.3156 7.22827L35.9522 6.58216L35.2253 6.86483C34.5388 7.1475 33.8523 7.38979 33.0851 7.55132C32.762 7.63208 32.4794 7.67246 32.1967 7.71284C32.2371 7.67246 32.3178 7.5917 32.3986 7.55132C34.3369 6.01683 36.1541 4.32081 37.8097 2.54403C39.3442 4.28043 41.0402 5.89568 42.8574 7.38979C42.9785 7.51094 43.14 7.63208 43.2612 7.75322C42.8978 7.67246 42.4939 7.5917 42.292 7.55132ZM33.4889 9.16657C34.0946 9.04543 34.7003 8.8839 35.2657 8.64161C35.8714 9.44924 36.5983 9.9742 37.4059 10.1357C37.4059 10.1357 37.4059 10.1357 37.4463 10.1357V10.1761H37.9309V10.1357C37.9309 10.1357 37.9309 10.1357 37.9712 10.1357C38.7789 9.9742 39.5057 9.44924 40.1115 8.64161C40.6768 8.84352 41.2825 9.04543 41.8882 9.16657H41.969C43.4631 9.48962 44.5534 9.65115 45.1591 9.08581C46.0071 9.69153 46.8955 10.2569 47.7839 10.8222C48.2281 11.1049 48.7127 11.3472 49.2376 11.6702C48.1877 11.7106 46.8148 11.751 45.4418 11.9529C40.9595 12.4778 38.6577 13.7701 38.5366 15.7487V30.1649C38.0924 30.4879 37.6078 30.3264 37.2848 30.1245V15.7084C37.1636 13.7297 34.8619 12.4375 30.3795 11.9125C28.8854 11.751 27.3913 11.6702 26.2203 11.6298C26.826 11.3068 27.3913 10.9837 27.9567 10.6607C28.6835 10.1761 29.4911 9.69153 30.2988 9.12619C30.9045 9.65115 32.0352 9.44924 33.4889 9.16657ZM35.5887 15.7487V30.8514L35.8714 31.0937C35.9118 31.134 36.4367 31.5782 37.1636 31.8205C38.2135 32.1436 39.2231 31.8609 39.9903 31.0533L40.1922 30.811V15.7891C40.3134 14.0527 46.1687 13.1239 51.5394 13.2855H51.7413V12.922C53.3162 13.6489 54.9314 14.295 56.5871 14.8603C56.5467 16.3948 56.3044 22.5732 54.2046 28.9534C52.8316 33.1935 50.9337 36.6663 48.5915 39.2911C45.7245 42.5216 42.1305 44.4599 37.9309 45.106C33.7312 44.4599 30.1372 42.5216 27.2702 39.2911C24.928 36.6663 23.0301 33.1935 21.6572 28.9534C19.4766 22.2501 19.315 15.668 19.2747 14.6584C20.8899 14.0931 22.4648 13.4874 23.9993 12.7605V13.3259H24.2012C29.6123 13.1239 35.4676 14.0123 35.5887 15.7487ZM11.8849 35.0914C10.31 35.2529 9.26008 36.101 8.85626 36.5048C6.23147 33.5569 5.54499 30.6495 6.43338 29.6399C6.95834 29.0342 8.29092 28.9534 9.21969 29.1957C11.1984 29.7611 11.9656 32.1436 12.2483 33.5569C12.3291 34.0415 12.4098 34.5665 12.3694 35.0914C12.1675 35.0914 12.006 35.0914 11.8849 35.0914ZM8.25054 40.9871C8.29092 40.8256 8.29092 40.664 8.3313 40.5833C8.65436 39.1296 9.50236 38.1604 9.94656 37.7162C10.2292 37.4739 10.9561 36.8278 12.0464 36.7471C13.2175 36.6259 14.1866 37.1509 14.8327 37.6354C14.7519 41.7543 14.3885 45.5098 13.8232 48.7807C10.5119 46.9232 8.81588 44.6618 8.53321 43.6523C8.04863 42.2793 8.25054 41.0275 8.25054 40.9871ZM6.87757 44.0965V44.1368C7.11986 44.9041 7.6852 45.7925 8.49283 46.7213C8.41207 46.802 8.3313 46.8424 8.25054 46.9232C7.60444 47.4481 5.90842 48.5788 4.49507 47.9327C3.88935 47.65 3.20287 47.0039 3.20287 46.4386C3.28363 45.6713 4.53545 44.4195 6.87757 44.0965ZM6.71605 40.2199C6.67567 40.341 6.63529 40.5025 6.5949 40.7448C6.5949 40.7852 6.51414 41.2294 6.55452 41.9563C6.31224 41.9563 6.06995 41.9563 5.86804 41.9159C4.89889 41.7947 2.51639 41.3102 1.87028 39.5737C1.58761 38.8065 1.58761 37.6758 2.07219 37.1509C2.79905 36.424 5.10079 36.424 7.40253 38.4027C7.07948 38.968 6.83719 39.5737 6.71605 40.2199Z" fill="#AC3964"/>
<path d="M11.2388 45.8732L11.4003 45.9944L12.4098 44.9445L12.2483 44.8233C12.2079 44.7829 9.82541 42.4408 10.8753 40.2602L10.9561 40.0583L9.66389 39.4526L9.58313 39.6545C8.08902 42.7639 11.0772 45.7521 11.2388 45.8732Z" fill="#AC3964"/>
<path d="M4.6566 47.1251C4.96883 47.1251 5.22194 46.872 5.22194 46.5597C5.22194 46.2475 4.96883 45.9944 4.6566 45.9944C4.34437 45.9944 4.09126 46.2475 4.09126 46.5597C4.09126 46.872 4.34437 47.1251 4.6566 47.1251Z" fill="#AC3964"/>
<path d="M5.82766 45.7925C5.98918 45.7925 6.15071 45.7117 6.23147 45.5906C6.35262 45.4694 6.393 45.3483 6.393 45.1868C6.393 45.0252 6.31224 44.9041 6.19109 44.7829C5.9488 44.581 5.58537 44.581 5.38346 44.8233C5.18156 45.0656 5.18156 45.4291 5.42384 45.631C5.54499 45.7521 5.70651 45.7925 5.82766 45.7925Z" fill="#AC3964"/>
<path d="M6.35262 46.3174C6.15071 46.5597 6.15071 46.9232 6.393 47.1251C6.51414 47.2462 6.63529 47.2866 6.79681 47.2866C6.95834 47.2866 7.11986 47.2058 7.24101 47.0847C7.44291 46.8424 7.44291 46.479 7.20062 46.2771C6.95834 46.0752 6.5949 46.0751 6.35262 46.3174Z" fill="#AC3964"/>
<path d="M3.20287 37.7162C3.08172 37.6354 2.96058 37.5547 2.79906 37.5547C2.63753 37.5547 2.51639 37.6354 2.43562 37.7162C2.23372 37.9181 2.23372 38.2815 2.476 38.4835C2.59715 38.5642 2.71829 38.645 2.83944 38.645C3.00096 38.645 3.12211 38.6046 3.24325 38.4835C3.44516 38.2815 3.40478 37.9181 3.20287 37.7162Z" fill="#AC3964"/>
<path d="M3.28363 39.6949C3.08172 39.8968 3.08172 40.2602 3.32401 40.4621C3.44516 40.5429 3.5663 40.6237 3.68745 40.6237C3.84897 40.6237 3.97012 40.5833 4.09126 40.4621C4.29317 40.2602 4.29317 39.8968 4.05088 39.6949C3.84897 39.4526 3.48554 39.493 3.28363 39.6949Z" fill="#AC3964"/>
<path d="M5.18156 39.0892C5.26232 39.1296 5.38346 39.1699 5.46423 39.1699C5.50461 39.1699 5.54499 39.1699 5.58537 39.1699C5.7469 39.1296 5.82766 39.0488 5.90842 38.9277C5.98918 38.8065 5.98918 38.645 5.98918 38.5238C5.98918 38.4027 5.86804 38.2815 5.7469 38.2008C5.62575 38.12 5.46423 38.12 5.34308 38.12C5.18156 38.1604 5.10079 38.2412 5.02003 38.3623C4.93927 38.4835 4.93927 38.645 4.93927 38.7661C4.97965 38.8873 5.06041 39.0084 5.18156 39.0892Z" fill="#AC3964"/>
<path d="M8.81588 33.355C8.7755 33.1935 8.69474 33.1127 8.57359 33.032C8.45245 32.9512 8.29092 32.9512 8.16978 32.9512C8.00825 32.9916 7.92749 33.0723 7.84673 33.1935C7.76596 33.3146 7.76596 33.4762 7.76596 33.5973C7.76596 33.7184 7.88711 33.8396 8.00825 33.9204C8.08902 33.9607 8.21016 34.0011 8.29092 34.0011C8.3313 34.0011 8.37169 34.0011 8.41207 34.0011C8.57359 33.9607 8.65436 33.88 8.73512 33.7588C8.81588 33.6377 8.85626 33.4762 8.81588 33.355Z" fill="#AC3964"/>
<path d="M9.58313 31.4975C9.87305 31.4975 10.1081 31.2624 10.1081 30.9725C10.1081 30.6826 9.87305 30.4476 9.58313 30.4476C9.2932 30.4476 9.05817 30.6826 9.05817 30.9725C9.05817 31.2624 9.2932 31.4975 9.58313 31.4975Z" fill="#AC3964"/>
<path d="M7.64482 30.0841C7.40253 29.8822 7.07948 29.9226 6.87757 30.1649C6.79681 30.286 6.75643 30.4072 6.75643 30.5687C6.75643 30.7302 6.83719 30.8514 6.95834 30.9321C7.0391 31.0129 7.16024 31.0533 7.28139 31.0533C7.32177 31.0533 7.32177 31.0533 7.36215 31.0533C7.52368 31.0533 7.64482 30.9725 7.72558 30.8514C7.80635 30.7302 7.84673 30.6091 7.84673 30.4476C7.84673 30.3264 7.76596 30.1649 7.64482 30.0841Z" fill="#AC3964"/>
<path d="M62.9269 49.346L62.7654 49.4672L63.9365 50.6382L64.098 50.5171C64.2191 50.396 66.9651 47.6904 65.6325 44.8233L65.5517 44.6214L64.0576 45.3483L64.1384 45.5502C64.9864 47.327 62.9673 49.346 62.9269 49.346Z" fill="#AC3964"/>
<path d="M68.8226 50.4363C68.9437 50.5575 69.0649 50.5979 69.2264 50.5979C69.3476 50.5979 69.4687 50.5575 69.5899 50.4363C69.7918 50.2344 69.8321 49.9114 69.6302 49.6691C69.4283 49.4672 69.1053 49.4268 68.863 49.6287C68.7418 49.7095 68.7015 49.871 68.7015 49.9921C68.6611 50.1941 68.7418 50.3556 68.8226 50.4363Z" fill="#AC3964"/>
<path d="M72.1743 43.1677C72.0935 43.0869 71.9724 43.0062 71.8108 43.0062C71.6897 43.0062 71.5282 43.0466 71.4474 43.1273C71.3666 43.2081 71.2859 43.3292 71.2859 43.4907C71.2859 43.6119 71.3263 43.7734 71.407 43.8542C71.4878 43.9753 71.6493 44.0157 71.7704 44.0157C71.8916 44.0157 72.0127 43.9753 72.0935 43.8946C72.1743 43.8138 72.255 43.6927 72.255 43.5311C72.2954 43.3696 72.255 43.2485 72.1743 43.1677Z" fill="#AC3964"/>
<path d="M71.3666 44.7829C71.1244 44.6618 70.8013 44.7829 70.6802 45.0252C70.559 45.2675 70.6802 45.5906 70.9224 45.7117C71.0032 45.7521 71.084 45.7521 71.1244 45.7521C71.1647 45.7521 71.2455 45.7521 71.2859 45.7117C71.407 45.6713 71.5282 45.5906 71.5685 45.4694C71.6089 45.3483 71.6493 45.2271 71.5685 45.0656C71.5685 44.9445 71.4878 44.8233 71.3666 44.7829Z" fill="#AC3964"/>
<path d="M69.9533 43.1677C69.711 43.0466 69.3879 43.1273 69.2668 43.3696C69.1457 43.6119 69.2264 43.9349 69.4687 44.0561C69.5495 44.0965 69.6302 44.1368 69.711 44.1368C69.8725 44.1368 70.0744 44.0561 70.1552 43.8946C70.2763 43.6119 70.1956 43.3292 69.9533 43.1677Z" fill="#AC3964"/>
<path d="M67.0862 39.6545C67.1266 39.6545 67.167 39.6545 67.2074 39.6545C67.4496 39.6545 67.6516 39.493 67.6919 39.2507C67.7323 39.1296 67.6919 38.968 67.6112 38.8873C67.5304 38.7661 67.4093 38.6854 67.2881 38.645C67.0054 38.5642 66.7632 38.7661 66.6824 39.0084C66.642 39.3315 66.8035 39.6141 67.0862 39.6545Z" fill="#AC3964"/>
<path d="M65.5517 38.0796C65.8344 38.0796 66.0363 37.8374 66.0363 37.5547C66.0363 37.272 65.794 37.0297 65.5517 37.0297C65.3094 37.0297 65.0268 37.3124 65.0268 37.5547C65.0268 37.797 65.2691 38.0796 65.5517 38.0796Z" fill="#AC3964"/>
<path d="M67.49 37.272C67.6112 37.272 67.6919 37.2316 67.8131 37.1509C67.9342 37.0701 67.9746 36.949 68.015 36.8278C68.0554 36.7067 67.9746 36.5451 67.8938 36.4644C67.8131 36.3432 67.6919 36.3029 67.5708 36.2625C67.4496 36.2625 67.2881 36.3029 67.2074 36.3836C67.0862 36.4644 67.0458 36.5855 67.0054 36.7067C66.9651 36.8278 67.0458 36.9893 67.1266 37.0701C67.2074 37.2316 67.3285 37.272 67.49 37.272Z" fill="#AC3964"/>
<path d="M69.2668 51.1228C69.1457 51.1228 69.0245 51.1632 68.9034 51.244C68.8226 51.3247 68.7418 51.4459 68.7418 51.567C68.7418 51.6882 68.7822 51.8093 68.863 51.9305C68.9438 52.0516 69.0649 52.092 69.186 52.092H69.2264C69.3476 52.092 69.4687 52.0516 69.5495 51.9708C69.6302 51.8901 69.711 51.7689 69.711 51.6478C69.711 51.5266 69.6706 51.4055 69.5899 51.2844C69.5091 51.1632 69.3879 51.1228 69.2668 51.1228Z" fill="#AC3964"/>
<path d="M70.4782 51.4055C70.7609 51.4055 70.9628 51.1632 70.9628 50.9209C70.9628 50.6382 70.7205 50.4363 70.4782 50.4363C70.1956 50.4363 69.9937 50.6786 69.9937 50.9209C69.9937 51.1632 70.1956 51.4055 70.4782 51.4055Z" fill="#AC3964"/>
<path d="M32.6813 36.5451L32.3178 38.1604L32.5197 38.2008C34.2965 38.6046 36.1541 38.8469 38.0116 38.8469C39.8288 38.8469 41.6459 38.645 43.4227 38.2008L43.6246 38.1604L43.2612 36.5451L43.0593 36.5855C41.4037 36.9893 39.7076 37.1912 38.0116 37.1912C36.2752 37.1912 34.5388 36.9893 32.9236 36.5855L32.6813 36.5451Z" fill="#AC3964"/>
<path d="M101.249 40.5025V42.4408L100.643 42.4812C98.826 42.4812 97.6953 42.4408 96.1608 40.3006L91.2747 32.8301L87.3173 32.9108V42.2389H84.8136V18.1716H93.8591C98.7856 18.1716 100.805 21.8059 100.805 25.521C100.805 29.1554 98.9875 32.7493 94.1821 32.7897H93.9398L97.9376 38.8469C99.149 40.6237 99.7547 40.5025 100.885 40.5025H101.249ZM87.3577 30.6091H93.7379C97.13 30.6091 98.3818 28.0651 98.3818 25.4806C98.3818 22.977 97.13 20.433 93.8591 20.433H87.3577V30.6091Z" fill="#AC3964"/>
<path d="M115.948 37.7566H108.073L106.377 42.2793H104.479L111.062 24.9557H112.959L119.542 42.2793H117.644L115.948 37.7566ZM115.342 36.1817L111.99 27.217L108.679 36.1817H115.342Z" fill="#AC3964"/>
<path d="M120.753 33.6377C120.753 28.7515 124.428 24.7538 129.314 24.7538C132.343 24.7538 134.725 26.2883 135.896 27.9843L134.24 28.7112C133.231 27.4593 131.414 26.5306 129.354 26.5306C125.478 26.5306 122.53 29.6803 122.53 33.6377C122.53 37.5547 125.397 40.7448 129.354 40.7448C131.333 40.7448 133.069 39.9372 134.119 38.7257L135.896 39.3718C134.483 41.1486 132.262 42.562 129.395 42.562C124.468 42.562 120.753 38.6046 120.753 33.6377Z" fill="#AC3964"/>
<path d="M139.046 24.9961H140.823V42.3197H139.046V24.9961Z" fill="#AC3964"/>
<path d="M154.512 40.664V42.3197H145.426V24.9961H147.203V40.664H154.512Z" fill="#AC3964"/>
<path d="M157.46 24.9961H159.237V42.3197H157.46V24.9961Z" fill="#AC3964"/>
<path d="M178.821 35.9394H167.919L165.576 42.2389H162.911L172.037 18.1716H174.703L183.869 42.2389H181.204L178.821 35.9394ZM177.973 33.7185L173.33 21.281L168.726 33.7185H177.973Z" fill="#AC3964"/>
<path d="M93.2533 49.3461V50.1134H92.8092C91.7996 50.1134 91.7189 51.244 91.7189 51.244V53.3035H90.8708V49.3865H91.7189V50.2345C91.7189 50.2345 91.9208 49.3461 92.8092 49.3461H93.2533Z" fill="#AC3964"/>
<path d="M93.6975 48.1347C93.6975 47.852 93.8591 47.6501 94.1821 47.6501C94.5052 47.6501 94.6667 47.8116 94.6667 48.1347C94.6667 48.4174 94.5052 48.6193 94.1821 48.6193C93.8994 48.6193 93.6975 48.4577 93.6975 48.1347ZM93.7783 49.4269H94.5859V53.3439H93.7783V49.4269Z" fill="#AC3964"/>
<path d="M95.4339 51.3652C95.4339 50.1134 96.4435 49.3461 97.4934 49.3461C98.2203 49.3461 98.8664 49.7096 99.1894 50.3557L98.5029 50.6787C98.301 50.3153 97.8972 50.1134 97.453 50.1134C96.8069 50.1134 96.2012 50.5979 96.2012 51.3652C96.2012 52.1324 96.8069 52.6574 97.453 52.6574C97.8568 52.6574 98.2606 52.4555 98.4625 52.0921L99.1894 52.4151C98.8664 53.0612 98.1799 53.4246 97.453 53.4246C96.3627 53.4246 95.4339 52.5766 95.4339 51.3652Z" fill="#AC3964"/>
<path d="M99.7144 51.3652C99.7144 50.1134 100.724 49.3461 101.774 49.3461C102.501 49.3461 103.147 49.7096 103.47 50.3557L102.783 50.6787C102.581 50.3153 102.178 50.1134 101.733 50.1134C101.087 50.1134 100.482 50.5979 100.482 51.3652C100.482 52.1324 101.087 52.6574 101.733 52.6574C102.137 52.6574 102.541 52.4555 102.743 52.0921L103.47 52.4151C103.147 53.0612 102.46 53.4246 101.733 53.4246C100.684 53.4246 99.7144 52.5766 99.7144 51.3652Z" fill="#AC3964"/>
<path d="M107.993 51.1229V53.3439H107.185V51.1229C107.185 50.5172 106.781 50.1134 106.256 50.1134C105.772 50.1134 105.206 50.396 105.206 51.2037V53.3035H104.358V47.529H105.206V50.1134C105.408 49.5884 105.973 49.3461 106.498 49.3461C107.387 49.3461 107.993 50.0326 107.993 51.1229Z" fill="#AC3964"/>
<path d="M112.798 51.6479H109.608C109.689 52.3343 110.214 52.7382 110.86 52.7382C111.304 52.7382 111.708 52.5766 111.95 52.1728L112.556 52.5362C112.192 53.1016 111.506 53.4246 110.819 53.4246C109.689 53.4246 108.8 52.617 108.8 51.3652C108.8 50.1538 109.689 49.3461 110.819 49.3461C111.91 49.3461 112.798 50.1538 112.798 51.3652V51.6479ZM112.031 51.1229C112.031 50.4364 111.465 50.073 110.86 50.073C110.294 50.073 109.769 50.4364 109.648 51.1229H112.031Z" fill="#AC3964"/>
<path d="M116.796 50.0326L114.534 52.5766H116.796V53.3439H113.404V52.7382L115.625 50.1538H113.484V49.3865H116.836V50.0326H116.796Z" fill="#AC3964"/>
<path d="M120.874 50.0326L118.613 52.5766H120.874V53.3439H117.482V52.7382L119.703 50.1538H117.563V49.3865H120.915V50.0326H120.874Z" fill="#AC3964"/>
<path d="M125.518 51.6479H122.328C122.409 52.3343 122.934 52.7382 123.58 52.7382C124.024 52.7382 124.428 52.5766 124.67 52.1728L125.276 52.5362C124.912 53.1016 124.226 53.4246 123.539 53.4246C122.409 53.4246 121.52 52.617 121.52 51.3652C121.52 50.1538 122.409 49.3461 123.539 49.3461C124.63 49.3461 125.518 50.1538 125.518 51.3652V51.6479ZM124.71 51.1229C124.71 50.4364 124.145 50.073 123.539 50.073C122.974 50.073 122.449 50.4364 122.328 51.1229H124.71Z" fill="#AC3964"/>
<path d="M134.483 51.1633V53.3439H133.675V51.1633C133.675 50.4768 133.231 50.1134 132.706 50.1134C132.221 50.1134 131.696 50.396 131.696 51.2037V53.3035H130.889V51.1633C130.889 50.4768 130.445 50.1134 129.96 50.1134C129.475 50.1134 128.95 50.396 128.95 51.2037V53.3035H128.143V49.3865H128.95V50.1134C129.112 49.6288 129.637 49.3057 130.202 49.3057C130.848 49.3057 131.373 49.6288 131.575 50.2345C131.858 49.5076 132.464 49.3057 132.989 49.3057C134.2 49.3461 134.483 50.4768 134.483 51.1633Z" fill="#AC3964"/>
<path d="M139.328 51.6479H136.138C136.219 52.3343 136.744 52.7382 137.39 52.7382C137.834 52.7382 138.238 52.5766 138.48 52.1728L139.086 52.5362C138.723 53.1016 138.036 53.4246 137.35 53.4246C136.219 53.4246 135.331 52.617 135.331 51.3652C135.331 50.1538 136.219 49.3461 137.35 49.3461C138.44 49.3461 139.328 50.1538 139.328 51.3652V51.6479ZM138.561 51.1229C138.561 50.4364 137.996 50.073 137.39 50.073C136.825 50.073 136.3 50.4364 136.179 51.1229H138.561Z" fill="#AC3964"/>
<path d="M144.134 47.529V53.3439H143.326V52.5362C143.084 53.0612 142.599 53.4246 141.913 53.4246C140.863 53.4246 139.934 52.617 139.934 51.4056C139.934 50.1941 140.823 49.3865 141.913 49.3865C142.599 49.3865 143.044 49.7096 143.286 50.1941V47.529H144.134ZM143.286 51.4056C143.286 50.6787 142.721 50.1134 142.034 50.1134C141.348 50.1134 140.742 50.6787 140.742 51.3652C140.742 52.0517 141.307 52.617 142.034 52.617C142.721 52.6574 143.286 52.1324 143.286 51.4056Z" fill="#AC3964"/>
<path d="M145.103 48.1347C145.103 47.852 145.265 47.6501 145.588 47.6501C145.911 47.6501 146.072 47.8116 146.072 48.1347C146.072 48.4174 145.911 48.6193 145.588 48.6193C145.265 48.6193 145.103 48.4577 145.103 48.1347ZM145.184 49.4269H145.991V53.3439H145.184V49.4269Z" fill="#AC3964"/>
<path d="M148.132 52.2132C148.132 52.4959 148.253 52.617 148.535 52.617H149.182V53.3843H148.535C147.687 53.3843 147.284 52.9804 147.284 52.1728V49.9922H146.597V49.3461H147.284V47.9732H148.091V49.3461H149.141V49.9922H148.132V52.2132Z" fill="#AC3964"/>
<path d="M153.583 51.6479H150.393C150.474 52.3343 150.999 52.7382 151.645 52.7382C152.089 52.7382 152.493 52.5766 152.735 52.1728L153.341 52.5362C152.977 53.1016 152.291 53.4246 151.604 53.4246C150.474 53.4246 149.585 52.617 149.585 51.3652C149.585 50.1538 150.474 49.3461 151.604 49.3461C152.695 49.3461 153.583 50.1538 153.583 51.3652V51.6479ZM152.816 51.1229C152.816 50.4364 152.251 50.073 151.645 50.073C151.079 50.073 150.555 50.4364 150.433 51.1229H152.816Z" fill="#AC3964"/>
<path d="M156.814 49.3461V50.1134H156.369C155.36 50.1134 155.279 51.244 155.279 51.244V53.3035H154.431V49.3865H155.279V50.2345C155.279 50.2345 155.481 49.3461 156.369 49.3461H156.814Z" fill="#AC3964"/>
<path d="M159.802 49.3461V50.1134H159.358C158.348 50.1134 158.267 51.244 158.267 51.244V53.3035H157.419V49.3865H158.267V50.2345C158.267 50.2345 158.469 49.3461 159.358 49.3461H159.802Z" fill="#AC3964"/>
<path d="M163.8 50.7999V53.3439H162.992V52.7382C162.709 53.2227 162.104 53.4246 161.498 53.4246C160.69 53.4246 160.125 53.0208 160.125 52.3747C160.125 51.6075 160.852 51.0421 162.467 51.0421H162.992V50.8402C162.992 50.3153 162.629 50.0326 162.063 50.0326C161.498 50.0326 161.134 50.3153 161.054 50.7595L160.327 50.6383C160.408 49.8711 161.134 49.3865 162.104 49.3865C163.154 49.3461 163.8 49.9115 163.8 50.7999ZM162.992 51.7286V51.5671H162.467C161.296 51.5671 160.892 51.8498 160.892 52.2132C160.892 52.5766 161.215 52.7382 161.7 52.7382C162.467 52.7785 162.992 52.3343 162.992 51.7286Z" fill="#AC3964"/>
<path d="M168.282 51.1633V53.3439H167.474V51.1633C167.474 50.4768 167.07 50.1134 166.546 50.1134C166.101 50.1134 165.496 50.396 165.496 51.2037V53.3035H164.648V49.3865H165.496V50.073C165.657 49.5076 166.263 49.3057 166.788 49.3057C167.676 49.3461 168.282 49.9922 168.282 51.1633Z" fill="#AC3964"/>
<path d="M173.087 51.6479H169.897C169.978 52.3343 170.503 52.7382 171.149 52.7382C171.593 52.7382 171.997 52.5766 172.239 52.1728L172.845 52.5362C172.482 53.1016 171.795 53.4246 171.109 53.4246C169.978 53.4246 169.09 52.617 169.09 51.3652C169.09 50.1538 169.978 49.3461 171.109 49.3461C172.199 49.3461 173.087 50.1538 173.087 51.3652V51.6479ZM172.28 51.1229C172.28 50.4364 171.714 50.073 171.109 50.073C170.543 50.073 170.018 50.4364 169.897 51.1229H172.28Z" fill="#AC3964"/>
<path d="M177.65 51.6479H174.46C174.541 52.3343 175.066 52.7382 175.712 52.7382C176.156 52.7382 176.56 52.5766 176.802 52.1728L177.408 52.5362C177.045 53.1016 176.358 53.4246 175.672 53.4246C174.541 53.4246 173.653 52.617 173.653 51.3652C173.653 50.1538 174.541 49.3461 175.672 49.3461C176.762 49.3461 177.65 50.1538 177.65 51.3652V51.6479ZM176.883 51.1229C176.883 50.4364 176.318 50.073 175.712 50.073C175.147 50.073 174.622 50.4364 174.501 51.1229H176.883Z" fill="#AC3964"/>
</svg>
