<svg width="159" height="158" viewBox="0 0 159 158" fill="none" xmlns="http://www.w3.org/2000/svg">
<g filter="url(#filter0_d_3421_21868)">
<path d="M46.0072 144.438L48.8619 145.39C48.9676 146.236 49.602 146.87 50.5535 147.187C52.2452 147.716 53.7254 146.976 54.3598 145.073C54.9942 143.064 54.2541 141.584 52.4567 140.844C51.1879 140.421 50.0249 140.738 49.1791 141.901L52.4567 143.064L51.8223 144.967L46.1129 143.064L46.9587 140.632C48.1218 138.94 50.5535 137.777 53.4082 138.729C56.5801 139.786 58.1661 142.852 57.0031 146.024C55.9458 149.196 52.8796 150.782 49.7077 149.619C47.2759 148.773 45.9014 146.87 46.0072 144.438Z" fill="white"/>
<path d="M34.6941 128.79L37.0201 130.376L36.3858 131.434C37.2316 131.116 38.3946 131.222 39.3462 131.857C41.0379 133.02 41.4608 135.028 40.0863 137.037L37.1259 141.372L34.7998 139.892L37.5488 135.874C38.1832 134.817 38.0774 133.865 37.1259 133.337C36.28 132.702 35.3285 132.914 34.5883 133.971L31.8394 137.989L29.5133 136.403L34.6941 128.79Z" fill="white"/>
<path d="M19.8919 127.416C19.0461 126.464 18.8346 125.301 19.0461 124.35L18.0945 125.196L16.2971 123.081L23.0638 117.054L24.8612 119.169L23.9096 120.015C24.8612 119.909 25.9185 120.121 26.8701 121.178C28.3503 122.87 28.1388 125.301 26.0242 127.204C23.8039 129.213 21.3721 129.002 19.8919 127.416ZM21.1607 125.196C21.9008 125.936 23.0638 126.147 24.1211 125.196C25.1784 124.244 25.1784 122.975 24.4383 122.235C23.6982 121.495 22.5352 121.284 21.4779 122.235C20.4206 123.187 20.4206 124.35 21.1607 125.196Z" fill="white"/>
<path d="M17.5659 108.385L18.9403 110.816L11.0106 115.151L9.63613 112.719L10.9049 111.979C9.74186 111.874 8.68456 111.345 8.15591 110.288L10.6934 108.913L11.1163 109.548C11.7507 110.711 12.4908 111.134 13.8653 110.393L17.5659 108.385Z" fill="white"/>
<path d="M3.71526 98.8689C3.39807 97.6001 3.71526 96.5428 4.34964 95.8027L3.08088 96.1199L2.34077 93.4766L11.0106 91.0448L11.7507 93.6881L10.482 94.0053C11.4335 94.2167 12.2794 95.0626 12.5966 96.3313C13.2309 98.4459 11.9622 100.666 9.21321 101.406C6.46423 102.252 4.34964 100.983 3.71526 98.8689ZM5.82985 97.4944C6.14704 98.4459 7.09861 99.186 8.4731 98.7631C9.84758 98.3402 10.3762 97.2829 10.059 96.2256C9.74186 95.1683 8.79029 94.5339 7.4158 94.9569C6.04131 95.3798 5.51266 96.4371 5.82985 97.4944Z" fill="white"/>
<path d="M4.77256 77.5114C3.5038 77.5114 2.86942 78.2515 2.86942 79.3088C2.86942 80.3661 3.60953 81.0005 4.77256 81.0005L9.63612 80.8948L9.74185 83.6438L0.754825 83.8552L0.649095 81.1063H1.81212C1.17774 80.5776 0.543365 79.626 0.543365 78.3573C0.437635 76.2427 1.91785 74.8682 4.24391 74.7625L9.53039 74.6567L9.63612 77.4057L4.77256 77.5114Z" fill="white"/>
<path d="M3.92672 65.6697L3.71526 66.727L1.49493 66.3041L1.70639 65.2468L-0.408203 64.8239L0.120446 62.0749L2.23504 62.4978L2.55223 60.7004L4.77256 61.2291L4.45537 63.0265L7.94445 63.6608C8.4731 63.7666 8.68456 63.5551 8.89602 63.0265L9.10748 62.0749L11.4335 62.4978L11.1163 63.8723C10.7992 65.6697 9.74185 66.8327 7.4158 66.4098L3.92672 65.6697Z" fill="white"/>
<path d="M15.0283 52.0306C13.971 54.4624 11.645 55.5196 9.00175 54.3566C6.3585 53.1936 5.51266 50.7618 6.56996 48.33C7.62726 45.8982 9.95331 44.8409 12.4908 46.004C12.7023 46.1097 13.0195 46.2154 13.2309 46.3212L10.7992 52.0306C11.9622 52.4535 12.7023 51.9248 13.0195 51.1847C13.3367 50.4446 13.1252 49.916 12.808 49.4931L13.971 46.7441C15.2398 48.0128 15.8742 50.0217 15.0283 52.0306ZM9.2132 51.5019L10.5877 48.33C9.63612 47.9071 8.89601 48.4357 8.47309 49.2816C8.15591 50.1274 8.36737 50.9733 9.2132 51.5019Z" fill="white"/>
<path d="M22.7466 38.7086C21.1607 40.8232 18.6232 41.3519 16.2971 39.5545C13.971 37.8628 13.6539 35.3253 15.3455 33.1049C16.9315 30.9903 19.469 30.5674 21.5836 32.1534C21.795 32.2591 22.0065 32.4706 22.218 32.682L18.5174 37.6513C19.5747 38.2857 20.4206 38.0742 20.9492 37.3341C21.3721 36.6998 21.3721 36.1711 21.1607 35.6425L22.9581 33.3164C23.9096 34.7966 24.0154 36.9112 22.7466 38.7086ZM17.2487 36.8055L19.3633 34.0565C18.6231 33.4221 17.6716 33.7393 17.1429 34.4794C16.5086 35.2195 16.5086 36.0654 17.2487 36.8055Z" fill="white"/>
<path d="M26.9758 20.7346C27.9274 19.9944 29.0904 19.783 30.042 19.9944L27.3987 16.7168L29.5133 15.0252L37.0201 24.3294L34.9055 26.021L34.0597 25.0695C34.1654 26.021 33.8482 27.0783 32.7909 27.9242C31.0993 29.2987 28.5617 28.9815 26.7643 26.8669C25.0727 24.5408 25.2841 22.109 26.9758 20.7346ZM29.1961 22.0033C28.3503 22.6377 28.1388 23.8007 29.0904 24.9637C30.042 26.1268 31.205 26.1268 32.0508 25.4924C32.8967 24.858 33.1081 23.5893 32.1566 22.532C31.205 21.4747 29.9362 21.3689 29.1961 22.0033Z" fill="white"/>
<path d="M55.84 15.4481C53.514 16.1882 51.2936 15.5538 50.5535 13.3335L53.4082 12.5934C53.7254 13.4392 54.3598 13.6507 55.0999 13.4392C55.84 13.2277 56.2629 12.6991 56.0515 12.0647C55.4171 10.0559 50.3421 12.8048 49.1791 8.89282C48.5447 6.88396 49.9192 5.19228 52.1395 4.45218C54.4655 3.71207 56.4744 4.45217 57.2145 6.46103L54.3598 7.30688C54.1483 6.6725 53.514 6.35531 52.7739 6.56677C52.1395 6.77823 51.7166 7.20115 51.928 7.94126C52.4567 9.8444 57.6374 7.30688 58.6947 11.0074C59.3291 12.8048 58.3775 14.708 55.84 15.4481Z" fill="white"/>
<path d="M66.0958 4.02925L68.8448 3.71207L69.6906 12.6991L66.9417 13.0163L66.0958 4.02925ZM65.5672 1.7032C65.4614 0.857357 66.0958 0.117259 67.0474 0.0115288C67.9989 -0.094201 68.7391 0.540165 68.8448 1.386C68.9505 2.23184 68.3161 2.97195 67.3646 2.97195C66.413 3.07768 65.6729 2.4433 65.5672 1.7032Z" fill="white"/>
<path d="M82.1667 3.81779C84.3871 4.02925 85.8673 5.40374 86.0787 7.62407L83.1183 7.30688C82.9068 6.6725 82.5897 6.24957 81.7438 6.14384C80.7923 6.03811 80.0521 6.77822 79.8407 8.25844C79.735 9.73865 80.2636 10.5845 81.2152 10.6902C81.9553 10.796 82.4839 10.4788 82.8011 9.84438L85.7616 10.1616C85.1272 12.1704 83.3298 13.3335 81.1094 13.122C78.4662 12.8048 76.7745 10.9017 77.0917 8.04698C77.5146 5.19228 79.5235 3.60633 82.1667 3.81779Z" fill="white"/>
<path d="M94.96 6.46103L97.6033 7.30687L94.96 15.871L92.3168 15.0252L94.96 6.46103ZM95.4887 4.02925C95.7001 3.18341 96.546 2.76049 97.4976 3.07768C98.4491 3.39487 98.872 4.24071 98.6606 4.98082C98.4491 5.72093 97.6033 6.24957 96.6517 5.93238C95.7001 5.72092 95.2772 4.87508 95.4887 4.02925Z" fill="white"/>
<path d="M107.436 8.04698L109.868 9.31573L104.581 19.9944L102.15 18.7257L107.436 8.04698Z" fill="white"/>
<path d="M116.423 16.6111L118.644 18.197L113.357 25.4924L111.137 23.9064L116.423 16.6111ZM117.586 14.4965C118.115 13.8621 118.961 13.6507 119.807 14.285C120.547 14.8137 120.758 15.7653 120.229 16.5054C119.701 17.1397 118.855 17.3512 118.009 16.7168C117.269 16.0824 117.163 15.1309 117.586 14.4965Z" fill="white"/>
<path d="M128.371 26.6554C129.322 27.607 129.428 28.77 129.216 29.6159L130.168 28.77L132.071 30.7789L125.41 36.9112L123.507 34.9023L124.459 34.0565C123.507 34.268 122.45 33.9508 121.498 32.9992C120.018 31.4133 120.124 28.8757 122.238 26.9726C124.353 24.9637 126.89 25.0695 128.371 26.6554ZM127.102 28.8757C126.362 28.1356 125.199 27.9242 124.141 28.8757C123.084 29.8273 123.084 31.0961 123.824 31.8362C124.564 32.5763 125.727 32.7877 126.785 31.7304C127.948 30.8846 127.842 29.6159 127.102 28.8757Z" fill="white"/>
<path d="M136.935 46.2154C137.992 45.6868 138.309 44.7352 137.781 43.7836C137.252 42.8321 136.406 42.6206 135.243 43.1493L130.908 45.4753L129.639 43.0435L137.569 38.8143L138.838 41.2461L137.781 41.7748C138.732 41.8805 139.684 42.5149 140.212 43.5722C141.164 45.3696 140.635 47.2727 138.415 48.4358L133.763 50.8675L132.494 48.4358L136.935 46.2154Z" fill="white"/>
<path d="M140.53 75.6083L137.781 78.3573L137.463 74.9739L139.261 73.388C139.155 72.9651 139.049 72.5421 139.049 72.1192C138.732 68.9473 140.952 66.0926 144.336 65.7754C147.719 65.4582 150.362 67.89 150.574 71.0619C150.891 74.2338 148.671 77.0885 145.287 77.3C143.384 77.6172 141.693 76.8771 140.53 75.6083ZM141.587 71.9078C141.693 73.7052 143.173 74.7625 145.076 74.6567C147.085 74.4453 148.248 73.1765 148.142 71.3791C148.036 69.5817 146.662 68.5244 144.653 68.6301C142.644 68.8416 141.375 70.1104 141.587 71.9078Z" fill="white"/>
<path d="M137.463 93.6881L137.992 90.9391L139.155 91.1506C138.521 90.5162 138.098 89.4589 138.309 88.1901C138.732 86.1813 140.318 85.0182 142.75 85.4412L147.931 86.3927L147.402 89.1417L142.538 88.1901C141.375 87.9787 140.53 88.5073 140.318 89.5646C140.107 90.6219 140.635 91.362 141.904 91.6792L146.768 92.6308L146.239 95.3798L137.463 93.6881Z" fill="white"/>
<path d="M142.01 107.856C141.481 109.019 140.53 109.653 139.578 109.759L140.741 110.288L139.578 112.825L131.437 109.019L132.6 106.481L133.763 107.01C133.234 106.27 133.128 105.107 133.657 103.838C134.609 101.829 136.935 100.983 139.578 102.252C142.116 103.521 142.961 105.847 142.01 107.856ZM139.472 107.539C139.895 106.587 139.578 105.424 138.309 104.79C137.04 104.155 135.877 104.684 135.455 105.636C135.032 106.587 135.349 107.75 136.618 108.385C137.886 109.019 139.049 108.49 139.472 107.539Z" fill="white"/>
<path d="M136.723 122.447L135.032 124.667L125.516 117.477L127.208 115.257L136.723 122.447Z" fill="white"/>
<path d="M128.582 131.328C129.111 131.962 129.111 132.914 128.476 133.548C127.736 134.183 126.89 134.183 126.256 133.548C125.727 132.914 125.727 132.068 126.362 131.328C127.102 130.693 127.948 130.799 128.582 131.328ZM126.679 129.742L124.67 131.645L118.432 125.196L120.441 123.292L126.679 129.742Z" fill="white"/>
<path d="M116 135.874L116.846 135.24L118.115 137.143L117.163 137.777L118.432 139.575L116.106 141.161L114.837 139.363L113.357 140.421L112.088 138.518L113.568 137.46L111.56 134.5C111.242 134.077 110.925 133.971 110.397 134.288L109.551 134.817L108.282 132.914L109.445 132.174C111.031 131.116 112.511 131.011 113.886 133.02L116 135.874Z" fill="white"/>
<path d="M99.5064 146.976L96.7574 148.033L97.1804 133.548L99.9293 132.491L99.7179 137.566L106.273 144.333L103.418 145.496L99.4007 141.055L99.5064 146.976Z" fill="white"/>
<path d="M78.4662 146.447C78.4662 147.399 77.7261 148.139 76.7745 148.245C75.823 148.245 75.0828 147.505 74.9771 146.659C74.9771 145.707 75.7172 144.967 76.6688 144.861C77.6204 144.756 78.3605 145.496 78.4662 146.447Z" fill="white"/>
<path d="M98.2835 121.204C103.497 118.603 108.098 115.238 112.085 111.107C107.791 109.118 103.804 107.13 99.817 105.294C99.357 110.342 98.7436 115.697 98.2835 121.204Z" fill="white"/>
<path d="M45.5331 92.5967C45.9931 93.2086 46.2998 93.8206 46.7599 94.2795C46.1465 94.5854 45.3798 95.0444 44.3064 95.5033C44.9197 96.4212 45.6865 97.645 46.4532 98.8689C46.6065 98.8689 46.6065 99.0218 46.7599 99.0218C48.7533 101.47 51.5135 101.622 54.2737 101.928C54.4271 100.552 54.5804 99.4808 54.8871 98.2569C55.1938 97.0331 55.6538 95.9623 55.9605 94.8914C52.2803 91.5259 47.5266 90.455 45.5331 92.5967ZM51.8202 93.2086C52.1269 93.2086 52.5869 93.6676 53.2003 94.2795C52.4336 94.7384 52.1269 95.1974 51.6669 95.1974C51.3602 95.1974 50.7468 94.5854 50.7468 94.4325C51.0535 93.8205 51.5135 93.3616 51.8202 93.2086Z" fill="white"/>
<path d="M95.2167 100.858C92.7632 97.645 90.003 94.7384 88.0095 91.3729C81.569 81.1233 78.8088 69.6499 77.4287 57.7175C77.122 54.8109 76.8153 51.7513 76.5087 48.6917C74.6685 49.1507 73.1351 49.6096 71.295 50.0685C74.5152 75.769 76.5087 101.164 69.7615 126.405C71.295 126.558 72.8284 126.558 74.2085 126.711C75.4352 126.864 76.0486 126.405 76.202 125.181C76.9687 117.838 78.0421 110.495 78.6555 103.152C79.1155 96.8801 78.8088 90.608 78.8088 84.0299C79.2689 84.0299 80.3423 83.8769 81.4157 83.7239C82.7958 98.104 82.1824 112.178 79.5755 126.405C81.2623 126.099 82.7958 126.099 84.1759 125.793C84.6359 125.64 85.4026 124.875 85.4026 124.416C86.1693 120.286 86.7827 116.155 87.2428 111.872C87.5494 108.354 87.7028 104.682 87.8561 101.164C88.7762 101.164 89.6963 101.164 90.923 101.164C91.2297 109.118 90.3096 116.92 88.7762 124.875C89.8496 124.569 90.463 124.263 91.2297 124.263C93.3765 123.957 94.2966 122.581 94.7566 120.592C96.1367 114.779 96.7501 108.965 96.2901 102.999C95.9834 102.081 95.5234 101.47 95.2167 100.858Z" fill="white"/>
<path d="M65.9279 87.8544C65.7746 84.7948 65.0078 81.7352 63.0144 78.9816C61.6343 77.1458 59.6408 76.228 57.3406 76.228C54.4271 76.3809 53.047 77.7577 53.3537 80.6643C53.967 84.6418 56.2672 88.0073 58.5674 90.608C61.1742 89.8431 63.321 88.9252 65.9279 87.8544ZM61.0209 79.2875C61.4809 79.4405 61.9409 79.7465 62.0943 80.2054C62.0943 80.5114 61.6343 80.9703 61.3276 81.7352C60.8675 80.9703 60.4075 80.6643 60.4075 80.2054C60.2542 79.8995 60.8675 79.2875 61.0209 79.2875ZM54.5804 78.2167C54.5804 77.9107 55.1938 77.4518 55.6538 77.2988C55.9605 77.2988 56.5739 77.9107 56.5739 78.2167C56.5739 78.6756 56.1139 78.9816 55.6538 79.7465C55.0405 78.9816 54.4271 78.5226 54.5804 78.2167ZM56.8806 86.0186C56.5739 86.0186 55.9605 85.4067 55.9605 84.9478C55.9605 84.6418 56.5739 84.1829 57.0339 83.571C57.494 84.1829 57.954 84.6418 57.954 85.1007C57.954 85.5597 57.3406 86.1716 56.8806 86.0186Z" fill="white"/>
<path d="M52.7403 109.118C52.2803 108.66 51.9736 108.048 51.3602 107.283C50.5935 107.895 49.5201 108.507 48.7533 109.424C47.6799 110.495 47.8333 111.719 48.9067 112.79C50.1334 114.014 51.6669 114.932 53.3537 114.32C55.0405 113.708 56.7272 112.79 58.414 112.025C57.0339 109.883 55.9605 108.048 54.7338 106.365C54.1204 106.518 53.507 106.671 53.2003 106.824C53.507 107.436 53.8137 108.048 53.8137 108.812C53.8137 108.66 52.8936 109.271 52.7403 109.118ZM50.4401 112.025C49.9801 111.872 49.6734 111.413 49.2134 110.954C49.5201 110.648 49.8267 110.036 50.2868 110.036C50.7468 110.036 51.0535 110.495 51.8202 110.954C51.2068 111.413 50.7468 112.025 50.4401 112.025ZM55.0405 110.648C55.3471 110.648 55.8072 111.107 56.4206 111.566C55.8072 112.025 55.3471 112.637 55.0405 112.637C54.5804 112.484 54.2737 111.872 53.967 111.566C54.4271 111.26 54.7338 110.801 55.0405 110.648Z" fill="white"/>
<path d="M70.0682 93.0557C67.6147 91.2199 64.2411 91.2199 61.6343 93.0557C57.6473 95.9623 56.1139 102.387 58.5674 106.518C60.8675 110.495 64.5478 113.249 68.5348 115.544C68.6881 115.085 68.9948 114.779 68.9948 114.32C69.6082 107.589 70.2215 101.011 70.8349 94.2795C70.9883 93.9735 70.5282 93.3616 70.0682 93.0557ZM63.1677 109.883C59.1807 106.824 57.6473 101.164 59.7941 97.3391C60.1008 97.4921 60.5608 97.645 61.0209 97.798C61.3276 97.951 61.7876 98.104 62.0943 98.2569C61.1742 102.387 61.4809 102.999 65.0078 108.048C64.3945 108.812 63.7811 109.271 63.1677 109.883Z" fill="white"/>
<path d="M108.404 36.7594C106.257 36.7594 104.111 36.9123 101.964 37.0653C101.657 37.0653 101.197 37.2183 100.89 37.3713C98.5902 38.7481 96.4434 40.1249 93.8366 41.8077C96.7501 42.1136 99.2036 41.9606 101.504 42.4196C105.031 43.1845 108.711 43.9494 112.085 45.1732C114.538 46.0911 115.611 48.0798 115.611 50.8334C115.458 59.5532 115.611 68.273 115.611 76.8399C115.611 77.9107 115.611 78.6756 116.992 78.6756C118.372 78.6756 118.372 77.7577 118.218 76.8399C118.218 68.1201 118.218 59.4003 118.218 50.5275C118.218 49.7626 118.525 48.9977 118.525 48.2328C118.525 47.6209 118.678 46.703 118.218 46.2441C115.765 43.0315 113.158 39.9719 110.398 37.0653C109.938 36.9123 109.018 36.7594 108.404 36.7594Z" fill="white"/>
<path d="M112.238 78.3697C112.238 69.8028 112.238 61.083 112.238 52.5162C112.238 48.6917 111.931 48.0798 108.251 47.009C105.184 46.2441 102.117 45.6321 99.0503 45.3262C95.9834 45.0202 92.7632 45.4792 89.6963 44.8672C86.3227 44.2553 84.1759 46.856 81.2623 47.3149C80.0356 47.4679 79.5755 48.3858 79.7289 49.6096C80.3423 54.8109 80.6489 60.0122 81.569 65.0605C83.4091 74.6982 86.3227 84.0299 91.9964 92.2908C97.2101 99.9397 104.111 105.447 113.158 107.742C113.771 107.895 114.998 107.742 115.305 107.283C117.605 103.917 119.598 100.399 121.745 96.8801C121.899 96.5742 121.899 96.2682 121.899 95.8093C116.378 96.2682 111.011 96.1152 105.644 94.7384C105.797 93.8206 106.104 92.9027 106.257 91.9848C106.717 91.9848 107.178 91.9848 107.638 92.1378C112.391 93.2086 117.145 93.3616 121.899 92.7497C123.125 92.5967 123.892 92.1378 124.199 90.914C124.965 86.7835 126.039 82.5001 126.346 78.3697C126.959 69.4969 125.272 61.083 120.979 53.1281C120.979 53.74 120.979 54.3519 120.979 55.1168C120.979 63.0718 120.979 71.0267 120.979 78.9816C120.979 81.1233 119.292 82.6531 116.685 82.6531C114.231 82.0412 112.238 80.5114 112.238 78.3697ZM105.491 56.4937C103.037 57.5645 102.117 59.8592 101.197 62.1539C100.43 63.9896 99.6636 65.8254 98.8969 67.8141C97.9769 67.3552 97.0568 67.0492 95.9834 66.5903C96.9035 64.2956 97.8235 62.1539 98.5902 60.1652C95.9834 59.7062 94.2966 60.6241 93.5299 63.0718C93.0698 64.7545 91.9964 66.2843 91.2297 67.9671C90.3096 67.5081 89.3896 67.0492 88.3162 66.5903C89.3896 64.2956 90.463 62.1539 91.3831 60.0122C90.6163 59.2473 90.003 59.2473 89.3896 60.3181C88.4695 62.0009 87.5494 63.6837 86.3227 65.6724C85.4026 65.2135 84.4826 64.6015 83.5625 64.1426C84.6359 62.1539 85.7093 60.1652 86.7827 58.3294C85.0959 57.2586 83.5625 56.1877 81.8757 55.1168C82.6424 54.199 83.2558 53.4341 84.0225 52.6692C91.0764 57.8705 98.1302 59.2473 105.184 52.6692C105.644 52.9751 106.104 53.4341 106.411 53.74C106.717 54.046 107.024 54.5049 107.484 54.9639C106.717 55.2698 106.257 56.0347 105.491 56.4937Z" fill="white"/>
<path d="M60.5609 114.167C59.7941 114.626 59.0274 115.238 58.2607 115.697C55.8072 117.073 53.2003 117.991 50.2868 117.226C47.2199 116.461 45.2264 114.626 44.613 111.566C43.9997 108.812 45.8398 106.977 47.8333 105.447C48.2933 105.141 48.7533 104.835 49.2134 104.376C46.4532 103.305 43.8463 102.081 42.4662 99.6338C40.9328 96.8801 40.6261 93.8206 42.1595 91.0669C43.5396 88.4663 46.2998 88.1603 48.9067 88.3133C50.2868 88.4663 51.5135 88.7722 52.5869 89.0782C51.6669 86.4776 50.5935 83.8769 50.1334 81.1233C49.3667 76.9929 51.5135 73.7803 55.5005 73.1684C59.7941 72.5565 63.321 73.7803 65.7746 77.4518C67.9214 80.5114 68.8414 84.0299 68.9948 87.7014C68.9948 89.0782 69.6082 89.3842 70.8349 89.2312C70.8349 75.3101 69.6082 61.542 67.4613 47.6209C80.649 44.8672 92.4565 39.666 103.037 31.5581C86.6294 20.5436 62.7077 19.6257 44.4597 32.9349C26.0584 46.2441 18.3912 69.8028 25.445 91.0669C32.6522 112.79 52.1269 124.263 66.3879 125.793C66.848 123.957 67.4613 121.969 67.9214 119.98C68.0747 119.674 67.768 118.909 67.4613 118.756C65.3145 117.226 62.861 115.697 60.5609 114.167Z" fill="white"/>
</g>
<defs>
<filter id="filter0_d_3421_21868" x="-0.408203" y="0" width="159.012" height="158" filterUnits="userSpaceOnUse" color-interpolation-filters="sRGB">
<feFlood flood-opacity="0" result="BackgroundImageFix"/>
<feColorMatrix in="SourceAlpha" type="matrix" values="0 0 0 0 0 0 0 0 0 0 0 0 0 0 0 0 0 0 127 0" result="hardAlpha"/>
<feOffset dx="4" dy="4"/>
<feGaussianBlur stdDeviation="2"/>
<feComposite in2="hardAlpha" operator="out"/>
<feColorMatrix type="matrix" values="0 0 0 0 0 0 0 0 0 0 0 0 0 0 0 0 0 0 0.08 0"/>
<feBlend mode="normal" in2="BackgroundImageFix" result="effect1_dropShadow_3421_21868"/>
<feBlend mode="normal" in="SourceGraphic" in2="effect1_dropShadow_3421_21868" result="shape"/>
</filter>
</defs>
</svg>
